<?xml version="1.0" encoding="utf-8"?>
<!-- Generator: Adobe Illustrator 16.0.0, SVG Export Plug-In . SVG Version: 6.00 Build 0)  -->
<!DOCTYPE svg PUBLIC "-//W3C//DTD SVG 1.1//EN" "http://www.w3.org/Graphics/SVG/1.1/DTD/svg11.dtd">
<svg version="1.1" id="Layer_1" xmlns="http://www.w3.org/2000/svg" xmlns:xlink="http://www.w3.org/1999/xlink" x="0px" y="0px"
	 width="17.781px" height="18.375px" viewBox="0 0 17.781 18.375" enable-background="new 0 0 17.781 18.375" xml:space="preserve">
<g>
	<defs>
		<rect id="SVGID_1_" x="0.284" y="0.553" width="17.308" height="17.269"/>
	</defs>
	<clipPath id="SVGID_2_">
		<use xlink:href="#SVGID_1_"  overflow="visible"/>
	</clipPath>
	<g clip-path="url(#SVGID_2_)">
		<defs>
			<rect id="SVGID_3_" x="-851.716" y="-1466.447" width="1440" height="1535"/>
		</defs>
		<clipPath id="SVGID_4_">
			<use xlink:href="#SVGID_3_"  overflow="visible"/>
		</clipPath>
		<g clip-path="url(#SVGID_4_)" enable-background="new    ">
			<g>
				<defs>
					<rect id="SVGID_5_" x="-0.716" y="-0.447" width="19" height="19"/>
				</defs>
				<clipPath id="SVGID_6_">
					<use xlink:href="#SVGID_5_"  overflow="visible"/>
				</clipPath>
				<g clip-path="url(#SVGID_6_)">
					<defs>
						<path id="SVGID_7_" d="M5.447,7.263c1.208,1.954,2.687,3.532,4.491,4.795c1.068,0.748,0.721,0.691,1.586-0.133
							c0.293-0.279,0.564-0.584,0.859-0.863c0.795-0.75,2.01-0.764,2.799-0.014c0.631,0.6,1.248,1.217,1.844,1.85
							c0.629,0.666,0.777,1.699,0.227,2.406c-0.885,1.143-1.883,2.178-3.426,2.43c-1.203,0.195-2.373,0.051-3.518-0.324
							c-3.056-1-5.437-2.934-7.384-5.439C1.616,10.285,0.656,8.43,0.357,6.287C0.104,4.481,0.48,2.88,1.922,1.641
							c0.198-0.17,0.365-0.374,0.56-0.548c0.797-0.716,1.949-0.726,2.727,0.005c0.646,0.606,1.273,1.232,1.879,1.876
							C7.822,3.756,7.792,4.957,7.033,5.73C6.526,6.247,5.993,6.738,5.447,7.263"/>
					</defs>
					<clipPath id="SVGID_8_">
						<use xlink:href="#SVGID_7_"  overflow="visible"/>
					</clipPath>
					<g clip-path="url(#SVGID_8_)">
						<defs>
							<rect id="SVGID_9_" x="0.284" y="-0.447" width="18" height="19"/>
						</defs>
						<clipPath id="SVGID_10_">
							<use xlink:href="#SVGID_9_"  overflow="visible"/>
						</clipPath>
						<rect x="-4.716" y="-4.447" clip-path="url(#SVGID_10_)" fill="#7F1399" width="27.308" height="27.269"/>
					</g>
				</g>
			</g>
		</g>
	</g>
</g>
</svg>
