<?xml version="1.0" encoding="utf-8"?>
<!-- Generator: Adobe Illustrator 16.0.0, SVG Export Plug-In . SVG Version: 6.00 Build 0)  -->
<!DOCTYPE svg PUBLIC "-//W3C//DTD SVG 1.1//EN" "http://www.w3.org/Graphics/SVG/1.1/DTD/svg11.dtd">
<svg version="1.1" id="Layer_1" xmlns="http://www.w3.org/2000/svg" xmlns:xlink="http://www.w3.org/1999/xlink" x="0px" y="0px"
	 width="8.719px" height="17px" viewBox="0 0 8.719 17" enable-background="new 0 0 8.719 17" xml:space="preserve">
<g>
	<g>
		<defs>
			<path id="SVGID_1_" d="M1.52,1324.435v3.159h4.414c-0.339,1.905-1.99,3.29-4.414,3.29c-2.673,0-4.845-2.262-4.845-4.936
				c0-2.672,2.172-4.93,4.845-4.93c1.204,0,2.284,0.415,3.133,1.225v0.007l2.283-2.284c-1.404-1.306-3.229-2.109-5.416-2.109
				c-4.474,0-8.097,3.623-8.097,8.097c0,4.476,3.623,8.101,8.097,8.101c4.678,0,7.775-3.292,7.775-7.918
				c0-0.593-0.057-1.16-0.157-1.701H1.52z"/>
		</defs>
		<clipPath id="SVGID_2_">
			<use xlink:href="#SVGID_1_"  overflow="visible"/>
		</clipPath>
		<g clip-path="url(#SVGID_2_)">
			<defs>
				<rect id="SVGID_3_" x="-1167.063" y="-150" width="1440" height="1535"/>
			</defs>
			<clipPath id="SVGID_4_">
				<use xlink:href="#SVGID_3_"  overflow="visible"/>
			</clipPath>
			<rect x="-11.577" y="1312.856" clip-path="url(#SVGID_4_)" fill="#7F1399" width="25.872" height="26.197"/>
		</g>
	</g>
	<g>
		<defs>
			<polygon id="SVGID_5_" points="15.187,1322.412 13.162,1322.412 13.162,1324.942 10.631,1324.942 10.631,1326.967 
				13.162,1326.967 13.162,1329.499 15.187,1329.499 15.187,1326.967 17.718,1326.967 17.718,1324.942 15.187,1324.942 			"/>
		</defs>
		<clipPath id="SVGID_6_">
			<use xlink:href="#SVGID_5_"  overflow="visible"/>
		</clipPath>
		<g clip-path="url(#SVGID_6_)">
			<defs>
				<rect id="SVGID_7_" x="-1167.063" y="-150" width="1440" height="1535"/>
			</defs>
			<clipPath id="SVGID_8_">
				<use xlink:href="#SVGID_7_"  overflow="visible"/>
			</clipPath>
			<rect x="5.631" y="1317.412" clip-path="url(#SVGID_8_)" fill="#7F1399" width="17.087" height="17.087"/>
		</g>
	</g>
</g>
<g>
	<defs>
		<path id="SVGID_9_" d="M8.045,5.638L7.852,8.225H5.328v8.666H2.009V8.225H0.328V5.638h1.681v-1.94v-0.56
			c0,0-0.118-2.864,3.319-3.02c1.671-0.073,3.063,0.303,3.063,0.303L8.038,2.965c0,0-2.71-0.84-2.71,0.797v1.876H8.045z"/>
	</defs>
	<clipPath id="SVGID_10_">
		<use xlink:href="#SVGID_9_"  overflow="visible"/>
	</clipPath>
	<g clip-path="url(#SVGID_10_)">
		<defs>
			<rect id="SVGID_11_" x="-1092.672" y="-1467.117" width="1440" height="1535"/>
		</defs>
		<clipPath id="SVGID_12_">
			<use xlink:href="#SVGID_11_"  overflow="visible"/>
		</clipPath>
		<rect x="-4.672" y="-4.891" clip-path="url(#SVGID_12_)" fill="#7F1399" width="18.063" height="26.782"/>
	</g>
</g>
</svg>
