<?xml version="1.0" encoding="utf-8"?>
<!-- Generator: Adobe Illustrator 16.0.0, SVG Export Plug-In . SVG Version: 6.00 Build 0)  -->
<!DOCTYPE svg PUBLIC "-//W3C//DTD SVG 1.1//EN" "http://www.w3.org/Graphics/SVG/1.1/DTD/svg11.dtd">
<svg version="1.1" id="Layer_1" xmlns="http://www.w3.org/2000/svg" xmlns:xlink="http://www.w3.org/1999/xlink" x="0px" y="0px"
	 width="17.313px" height="17px" viewBox="0 0 17.313 17" enable-background="new 0 0 17.313 17" xml:space="preserve">
<g>
	<g>
		<defs>
			<path id="SVGID_1_" d="M4.77,1324.435v3.159h4.414c-0.339,1.905-1.99,3.29-4.414,3.29c-2.673,0-4.845-2.262-4.845-4.936
				c0-2.672,2.172-4.93,4.845-4.93c1.204,0,2.284,0.415,3.133,1.225v0.007l2.283-2.284c-1.404-1.306-3.229-2.109-5.416-2.109
				c-4.474,0-8.097,3.623-8.097,8.097c0,4.476,3.623,8.101,8.097,8.101c4.678,0,7.775-3.292,7.775-7.918
				c0-0.593-0.057-1.16-0.157-1.701H4.77z"/>
		</defs>
		<clipPath id="SVGID_2_">
			<use xlink:href="#SVGID_1_"  overflow="visible"/>
		</clipPath>
		<g clip-path="url(#SVGID_2_)">
			<defs>
				<rect id="SVGID_3_" x="-1163.813" y="-150" width="1440" height="1535"/>
			</defs>
			<clipPath id="SVGID_4_">
				<use xlink:href="#SVGID_3_"  overflow="visible"/>
			</clipPath>
			<rect x="-8.327" y="1312.856" clip-path="url(#SVGID_4_)" fill="#7F1399" width="25.872" height="26.197"/>
		</g>
	</g>
	<g>
		<defs>
			<polygon id="SVGID_5_" points="18.437,1322.412 16.412,1322.412 16.412,1324.942 13.881,1324.942 13.881,1326.967 
				16.412,1326.967 16.412,1329.499 18.437,1329.499 18.437,1326.967 20.968,1326.967 20.968,1324.942 18.437,1324.942 			"/>
		</defs>
		<clipPath id="SVGID_6_">
			<use xlink:href="#SVGID_5_"  overflow="visible"/>
		</clipPath>
		<g clip-path="url(#SVGID_6_)">
			<defs>
				<rect id="SVGID_7_" x="-1163.813" y="-150" width="1440" height="1535"/>
			</defs>
			<clipPath id="SVGID_8_">
				<use xlink:href="#SVGID_7_"  overflow="visible"/>
			</clipPath>
			<rect x="8.881" y="1317.412" clip-path="url(#SVGID_8_)" fill="#7F1399" width="17.087" height="17.087"/>
		</g>
	</g>
</g>
<g>
	<defs>
		<rect id="SVGID_9_" x="0.281" y="0.125" width="16.75" height="16.75"/>
	</defs>
	<clipPath id="SVGID_10_">
		<use xlink:href="#SVGID_9_"  overflow="visible"/>
	</clipPath>
	<g clip-path="url(#SVGID_10_)">
		<defs>
			<rect id="SVGID_11_" x="-1167.756" y="-1425.645" width="1399.528" height="1491.858"/>
		</defs>
		<clipPath id="SVGID_12_">
			<use xlink:href="#SVGID_11_"  overflow="visible"/>
		</clipPath>
		<g clip-path="url(#SVGID_12_)" enable-background="new    ">
			<g>
				<defs>
					<rect id="SVGID_13_" x="-0.51" y="0.125" width="18.466" height="17.494"/>
				</defs>
				<clipPath id="SVGID_14_">
					<use xlink:href="#SVGID_13_"  overflow="visible"/>
				</clipPath>
				<g clip-path="url(#SVGID_14_)">
					<defs>
						<path id="SVGID_15_" d="M14.133,4.03c0,0.553-0.452,1.004-1.006,1.004c-0.556,0-1.005-0.451-1.005-1.004
							c0-0.556,0.449-1.007,1.005-1.007C13.681,3.023,14.133,3.475,14.133,4.03 M8.656,11.292c-1.542,0-2.791-1.251-2.791-2.793
							c0-1.541,1.248-2.791,2.791-2.791c1.541,0,2.79,1.25,2.79,2.791C11.446,10.041,10.197,11.292,8.656,11.292 M8.656,4.2
							c-2.375,0-4.3,1.924-4.3,4.299c0,2.376,1.925,4.301,4.3,4.301c2.376,0,4.3-1.925,4.3-4.301C12.956,6.124,11.032,4.2,8.656,4.2
							 M15.474,11.885c-0.037,0.816-0.175,1.259-0.289,1.555c-0.151,0.391-0.332,0.668-0.627,0.962
							c-0.293,0.293-0.571,0.475-0.962,0.627c-0.296,0.115-0.738,0.25-1.555,0.288c-0.884,0.04-1.147,0.05-3.385,0.05
							s-2.501-0.01-3.384-0.05c-0.817-0.038-1.259-0.173-1.556-0.288c-0.39-0.152-0.668-0.334-0.961-0.627
							c-0.293-0.294-0.475-0.571-0.627-0.962c-0.114-0.296-0.25-0.738-0.289-1.555C1.799,11,1.792,10.736,1.792,8.499
							c0-2.236,0.007-2.501,0.047-3.384C1.877,4.3,2.013,3.855,2.127,3.561C2.28,3.17,2.46,2.889,2.755,2.598
							c0.293-0.293,0.571-0.475,0.961-0.626C4.013,1.856,4.456,1.72,5.272,1.683c0.883-0.04,1.146-0.049,3.384-0.049
							s2.501,0.009,3.385,0.049c0.816,0.037,1.259,0.174,1.555,0.289c0.391,0.151,0.669,0.333,0.962,0.626
							c0.295,0.291,0.476,0.572,0.627,0.963c0.114,0.295,0.252,0.739,0.289,1.555c0.04,0.883,0.049,1.147,0.049,3.384
							C15.522,10.736,15.514,11,15.474,11.885 M16.591,3.014c-0.214-0.551-0.5-1.019-0.964-1.483
							c-0.468-0.466-0.935-0.753-1.484-0.967C13.609,0.357,13,0.216,12.109,0.176c-0.893-0.042-1.179-0.051-3.453-0.051
							c-2.274,0-2.561,0.009-3.454,0.051C4.312,0.216,3.704,0.357,3.17,0.563C2.619,0.777,2.153,1.064,1.686,1.53
							C1.222,1.995,0.935,2.463,0.722,3.014C0.515,3.546,0.373,4.156,0.333,5.047C0.292,5.939,0.281,6.226,0.281,8.499
							c0,2.275,0.01,2.56,0.051,3.452c0.04,0.892,0.182,1.501,0.389,2.033c0.213,0.552,0.5,1.019,0.964,1.484
							c0.467,0.467,0.933,0.753,1.484,0.966c0.533,0.207,1.142,0.35,2.032,0.391c0.893,0.038,1.18,0.05,3.454,0.05
							c2.274,0,2.561-0.012,3.453-0.05c0.891-0.041,1.5-0.184,2.033-0.391c0.55-0.213,1.017-0.499,1.484-0.966
							c0.464-0.466,0.75-0.933,0.964-1.484c0.209-0.532,0.349-1.142,0.39-2.033c0.041-0.893,0.051-1.177,0.051-3.452
							c0-2.273-0.01-2.56-0.051-3.452C16.939,4.156,16.8,3.546,16.591,3.014"/>
					</defs>
					<clipPath id="SVGID_16_">
						<use xlink:href="#SVGID_15_"  overflow="visible"/>
					</clipPath>
					<g clip-path="url(#SVGID_16_)">
						<defs>
							<rect id="SVGID_17_" x="-0.51" y="0.125" width="18.466" height="17.494"/>
						</defs>
						<clipPath id="SVGID_18_">
							<use xlink:href="#SVGID_17_"  overflow="visible"/>
						</clipPath>
						<rect x="-4.578" y="-4.734" clip-path="url(#SVGID_18_)" fill="#7F1399" width="26.469" height="26.469"/>
					</g>
				</g>
			</g>
		</g>
	</g>
</g>
</svg>
