<?xml version="1.0" encoding="utf-8"?>
<!-- Generator: Adobe Illustrator 16.0.0, SVG Export Plug-In . SVG Version: 6.00 Build 0)  -->
<!DOCTYPE svg PUBLIC "-//W3C//DTD SVG 1.1//EN" "http://www.w3.org/Graphics/SVG/1.1/DTD/svg11.dtd">
<svg version="1.1" id="Layer_1" xmlns="http://www.w3.org/2000/svg" xmlns:xlink="http://www.w3.org/1999/xlink" x="0px" y="0px"
	 width="17.313px" height="17px" viewBox="0 0 17.313 17" enable-background="new 0 0 17.313 17" xml:space="preserve">
<g>
	<g>
		<defs>
			<path id="SVGID_1_" d="M4.77,1324.435v3.159h4.414c-0.339,1.905-1.99,3.29-4.414,3.29c-2.673,0-4.845-2.262-4.845-4.936
				c0-2.672,2.172-4.93,4.845-4.93c1.204,0,2.284,0.415,3.133,1.225v0.007l2.283-2.284c-1.404-1.306-3.229-2.109-5.416-2.109
				c-4.474,0-8.097,3.623-8.097,8.097c0,4.476,3.623,8.101,8.097,8.101c4.678,0,7.775-3.292,7.775-7.918
				c0-0.593-0.057-1.16-0.157-1.701H4.77z"/>
		</defs>
		<clipPath id="SVGID_2_">
			<use xlink:href="#SVGID_1_"  overflow="visible"/>
		</clipPath>
		<g clip-path="url(#SVGID_2_)">
			<defs>
				<rect id="SVGID_3_" x="-1163.813" y="-150" width="1440" height="1535"/>
			</defs>
			<clipPath id="SVGID_4_">
				<use xlink:href="#SVGID_3_"  overflow="visible"/>
			</clipPath>
			<rect x="-8.327" y="1312.856" clip-path="url(#SVGID_4_)" fill="#7F1399" width="25.872" height="26.197"/>
		</g>
	</g>
	<g>
		<defs>
			<polygon id="SVGID_5_" points="18.437,1322.412 16.412,1322.412 16.412,1324.942 13.881,1324.942 13.881,1326.967 
				16.412,1326.967 16.412,1329.499 18.437,1329.499 18.437,1326.967 20.968,1326.967 20.968,1324.942 18.437,1324.942 			"/>
		</defs>
		<clipPath id="SVGID_6_">
			<use xlink:href="#SVGID_5_"  overflow="visible"/>
		</clipPath>
		<g clip-path="url(#SVGID_6_)">
			<defs>
				<rect id="SVGID_7_" x="-1163.813" y="-150" width="1440" height="1535"/>
			</defs>
			<clipPath id="SVGID_8_">
				<use xlink:href="#SVGID_7_"  overflow="visible"/>
			</clipPath>
			<rect x="8.881" y="1317.412" clip-path="url(#SVGID_8_)" fill="#7F1399" width="17.087" height="17.087"/>
		</g>
	</g>
</g>
<g>
	<g>
		<defs>
			<rect id="SVGID_9_" x="0.501" y="5.246" width="3.573" height="11.492"/>
		</defs>
		<clipPath id="SVGID_10_">
			<use xlink:href="#SVGID_9_"  overflow="visible"/>
		</clipPath>
		<g clip-path="url(#SVGID_10_)">
			<defs>
				<rect id="SVGID_11_" x="-1193.563" y="-1414.332" width="1388.394" height="1479.99"/>
			</defs>
			<clipPath id="SVGID_12_">
				<use xlink:href="#SVGID_11_"  overflow="visible"/>
			</clipPath>
			<rect x="-4.32" y="0.425" clip-path="url(#SVGID_12_)" fill="#7F1399" width="13.215" height="21.135"/>
		</g>
	</g>
	<g>
		<defs>
			<path id="SVGID_13_" d="M2.311,0.261c-1.153,0-1.904,0.776-1.904,1.786c0,0.988,0.729,1.787,1.858,1.787
				c1.196,0,1.926-0.799,1.926-1.787C4.167,1.037,3.461,0.261,2.311,0.261"/>
		</defs>
		<clipPath id="SVGID_14_">
			<use xlink:href="#SVGID_13_"  overflow="visible"/>
		</clipPath>
		<g clip-path="url(#SVGID_14_)">
			<defs>
				<rect id="SVGID_15_" x="-1193.563" y="-1414.332" width="1388.394" height="1479.99"/>
			</defs>
			<clipPath id="SVGID_16_">
				<use xlink:href="#SVGID_15_"  overflow="visible"/>
			</clipPath>
			<rect x="-4.414" y="-4.56" clip-path="url(#SVGID_16_)" fill="#7F1399" width="13.426" height="13.215"/>
		</g>
	</g>
	<g>
		<defs>
			<path id="SVGID_17_" d="M12.792,4.986c-1.925,0-3.077,1.104-3.55,1.854H9.17L9.007,5.245H5.905
				c0.046,1.034,0.094,2.233,0.094,3.667v7.827h3.572v-6.627c0-0.33,0.024-0.66,0.119-0.895c0.258-0.657,0.844-1.339,1.834-1.339
				c1.292,0,1.81,1.011,1.81,2.494v6.367h3.572V9.947C16.906,6.562,15.144,4.986,12.792,4.986"/>
		</defs>
		<clipPath id="SVGID_18_">
			<use xlink:href="#SVGID_17_"  overflow="visible"/>
		</clipPath>
		<g clip-path="url(#SVGID_18_)">
			<defs>
				<rect id="SVGID_19_" x="-1193.563" y="-1414.332" width="1388.394" height="1479.99"/>
			</defs>
			<clipPath id="SVGID_20_">
				<use xlink:href="#SVGID_19_"  overflow="visible"/>
			</clipPath>
			<rect x="1.084" y="0.165" clip-path="url(#SVGID_20_)" fill="#7F1399" width="20.644" height="21.396"/>
		</g>
	</g>
</g>
</svg>
