<?xml version="1.0" encoding="utf-8"?>
<!-- Generator: Adobe Illustrator 16.0.0, SVG Export Plug-In . SVG Version: 6.00 Build 0)  -->
<!DOCTYPE svg PUBLIC "-//W3C//DTD SVG 1.1//EN" "http://www.w3.org/Graphics/SVG/1.1/DTD/svg11.dtd">
<svg version="1.1" id="Layer_1" xmlns="http://www.w3.org/2000/svg" xmlns:xlink="http://www.w3.org/1999/xlink" x="0px" y="0px"
	 width="13.625px" height="18.375px" viewBox="0 0 13.625 18.375" enable-background="new 0 0 13.625 18.375" xml:space="preserve">
<g>
	<g>
		<defs>
			<rect id="SVGID_1_" x="0.301" y="0.224" width="13.046" height="17.926"/>
		</defs>
		<clipPath id="SVGID_2_">
			<use xlink:href="#SVGID_1_"  overflow="visible"/>
		</clipPath>
		<g clip-path="url(#SVGID_2_)">
			<defs>
				<rect id="SVGID_3_" x="-91.699" y="-1470.776" width="1439.999" height="1535"/>
			</defs>
			<clipPath id="SVGID_4_">
				<use xlink:href="#SVGID_3_"  overflow="visible"/>
			</clipPath>
			<g clip-path="url(#SVGID_4_)" enable-background="new    ">
				<g>
					<defs>
						<rect id="SVGID_5_" x="-0.699" y="-0.776" width="14.999" height="20"/>
					</defs>
					<clipPath id="SVGID_6_">
						<use xlink:href="#SVGID_5_"  overflow="visible"/>
					</clipPath>
					<g clip-path="url(#SVGID_6_)">
						<defs>
							<path id="SVGID_7_" d="M6.805,10.215c-1.922-0.012-3.463-1.561-3.459-3.478c0.002-1.91,1.56-3.46,3.476-3.461
								c1.913-0.001,3.482,1.552,3.492,3.451C10.321,8.656,8.741,10.227,6.805,10.215 M5.571,0.34
								C2.021,0.995-0.42,4.609,0.493,8.019c0.341,1.272,0.981,2.465,1.485,3.692c0.072,0.174,1.9,3.699,2.779,4.879
								c0.494,0.66,0.55,0.785,1.043,1.221c0.451,0.4,1.672,0.686,2.646-0.57c0.965-1.242,2.231-3.469,2.956-4.941
								c0.117-0.258,0.193-0.42,0.266-0.586c0.426-0.969,0.912-1.918,1.258-2.917c0.246-0.704,0.439-1.478,0.418-2.214
								C13.226,2.485,9.596-0.401,5.571,0.34"/>
						</defs>
						<clipPath id="SVGID_8_">
							<use xlink:href="#SVGID_7_"  overflow="visible"/>
						</clipPath>
						<g clip-path="url(#SVGID_8_)">
							<defs>
								<rect id="SVGID_9_" x="0.301" y="0.224" width="13.999" height="18"/>
							</defs>
							<clipPath id="SVGID_10_">
								<use xlink:href="#SVGID_9_"  overflow="visible"/>
							</clipPath>
							<rect x="-4.699" y="-4.776" clip-path="url(#SVGID_10_)" fill="#7F1399" width="23.046" height="27.926"/>
						</g>
					</g>
				</g>
			</g>
		</g>
	</g>
</g>
</svg>
