<?xml version="1.0" encoding="utf-8"?>
<!-- Generator: Adobe Illustrator 16.0.0, SVG Export Plug-In . SVG Version: 6.00 Build 0)  -->
<!DOCTYPE svg PUBLIC "-//W3C//DTD SVG 1.1//EN" "http://www.w3.org/Graphics/SVG/1.1/DTD/svg11.dtd">
<svg version="1.1" id="Layer_1" xmlns="http://www.w3.org/2000/svg" xmlns:xlink="http://www.w3.org/1999/xlink" x="0px" y="0px"
	 width="25.188px" height="18.375px" viewBox="0 0 25.188 18.375" enable-background="new 0 0 25.188 18.375" xml:space="preserve">
<g>
	<g>
		<defs>
			<rect id="SVGID_1_" x="0.393" y="1.376" width="8.67" height="15.579"/>
		</defs>
		<clipPath id="SVGID_2_">
			<use xlink:href="#SVGID_1_"  overflow="visible"/>
		</clipPath>
		<g clip-path="url(#SVGID_2_)">
			<defs>
				<rect id="SVGID_3_" x="-506.607" y="-1468.453" width="1440" height="1535"/>
			</defs>
			<clipPath id="SVGID_4_">
				<use xlink:href="#SVGID_3_"  overflow="visible"/>
			</clipPath>
			<g clip-path="url(#SVGID_4_)" enable-background="new    ">
				<g>
					<defs>
						<rect id="SVGID_5_" x="-0.607" y="0.547" width="10" height="17"/>
					</defs>
					<clipPath id="SVGID_6_">
						<use xlink:href="#SVGID_5_"  overflow="visible"/>
					</clipPath>
					<g clip-path="url(#SVGID_6_)">
						<defs>
							<path id="SVGID_7_" d="M0.618,1.376C0.3,2.163,0.326,16.321,0.646,16.955c2.804-2.591,5.586-5.161,8.416-7.777
								C6.216,6.547,3.434,3.976,0.618,1.376"/>
						</defs>
						<clipPath id="SVGID_8_">
							<use xlink:href="#SVGID_7_"  overflow="visible"/>
						</clipPath>
						<g clip-path="url(#SVGID_8_)">
							<defs>
								<rect id="SVGID_9_" x="0.393" y="0.547" width="9" height="17"/>
							</defs>
							<clipPath id="SVGID_10_">
								<use xlink:href="#SVGID_9_"  overflow="visible"/>
							</clipPath>
							<rect x="-4.607" y="-3.624" clip-path="url(#SVGID_10_)" fill="#7F1399" width="18.67" height="25.579"/>
						</g>
					</g>
				</g>
			</g>
		</g>
	</g>
	<g>
		<defs>
			<rect id="SVGID_11_" x="16.131" y="1.393" width="8.664" height="15.574"/>
		</defs>
		<clipPath id="SVGID_12_">
			<use xlink:href="#SVGID_11_"  overflow="visible"/>
		</clipPath>
		<g clip-path="url(#SVGID_12_)">
			<defs>
				<rect id="SVGID_13_" x="-506.607" y="-1468.453" width="1440" height="1535"/>
			</defs>
			<clipPath id="SVGID_14_">
				<use xlink:href="#SVGID_13_"  overflow="visible"/>
			</clipPath>
			<g clip-path="url(#SVGID_14_)" enable-background="new    ">
				<g>
					<defs>
						<rect id="SVGID_15_" x="15.393" y="0.547" width="10" height="17"/>
					</defs>
					<clipPath id="SVGID_16_">
						<use xlink:href="#SVGID_15_"  overflow="visible"/>
					</clipPath>
					<g clip-path="url(#SVGID_16_)">
						<defs>
							<path id="SVGID_17_" d="M24.566,16.967c0.315-0.761,0.301-14.899-0.015-15.574c-2.821,2.608-5.596,5.176-8.421,7.787
								C18.97,11.801,21.753,14.371,24.566,16.967"/>
						</defs>
						<clipPath id="SVGID_18_">
							<use xlink:href="#SVGID_17_"  overflow="visible"/>
						</clipPath>
						<g clip-path="url(#SVGID_18_)">
							<defs>
								<rect id="SVGID_19_" x="15.393" y="0.547" width="10" height="17"/>
							</defs>
							<clipPath id="SVGID_20_">
								<use xlink:href="#SVGID_19_"  overflow="visible"/>
							</clipPath>
							<rect x="11.131" y="-3.607" clip-path="url(#SVGID_20_)" fill="#7F1399" width="18.665" height="25.574"/>
						</g>
					</g>
				</g>
			</g>
		</g>
	</g>
	<g>
		<defs>
			<rect id="SVGID_21_" x="1.393" y="0.547" width="22.382" height="10.016"/>
		</defs>
		<clipPath id="SVGID_22_">
			<use xlink:href="#SVGID_21_"  overflow="visible"/>
		</clipPath>
		<g clip-path="url(#SVGID_22_)">
			<defs>
				<rect id="SVGID_23_" x="-506.607" y="-1468.453" width="1440" height="1535"/>
			</defs>
			<clipPath id="SVGID_24_">
				<use xlink:href="#SVGID_23_"  overflow="visible"/>
			</clipPath>
			<g clip-path="url(#SVGID_24_)" enable-background="new    ">
				<g>
					<defs>
						<rect id="SVGID_25_" x="1.393" y="-0.453" width="23" height="12"/>
					</defs>
					<clipPath id="SVGID_26_">
						<use xlink:href="#SVGID_25_"  overflow="visible"/>
					</clipPath>
					<g clip-path="url(#SVGID_26_)">
						<defs>
							<path id="SVGID_27_" d="M1.393,0.814c0.168,0.131,0.332,0.238,0.473,0.368c3.129,2.89,6.257,5.779,9.382,8.673
								c1.009,0.936,1.683,0.942,2.683,0.02c2.381-2.201,4.766-4.398,7.146-6.601c0.898-0.829,1.788-1.669,2.698-2.52
								C23.191,0.455,1.883,0.482,1.393,0.814"/>
						</defs>
						<clipPath id="SVGID_28_">
							<use xlink:href="#SVGID_27_"  overflow="visible"/>
						</clipPath>
						<g clip-path="url(#SVGID_28_)">
							<defs>
								<rect id="SVGID_29_" x="1.393" y="0.547" width="23" height="11"/>
							</defs>
							<clipPath id="SVGID_30_">
								<use xlink:href="#SVGID_29_"  overflow="visible"/>
							</clipPath>
							<rect x="-3.607" y="-4.453" clip-path="url(#SVGID_30_)" fill="#7F1399" width="32.382" height="20.016"/>
						</g>
					</g>
				</g>
			</g>
		</g>
	</g>
	<g>
		<defs>
			<rect id="SVGID_31_" x="1.387" y="9.86" width="22.398" height="7.968"/>
		</defs>
		<clipPath id="SVGID_32_">
			<use xlink:href="#SVGID_31_"  overflow="visible"/>
		</clipPath>
		<g clip-path="url(#SVGID_32_)">
			<defs>
				<rect id="SVGID_33_" x="-506.607" y="-1468.453" width="1440" height="1535"/>
			</defs>
			<clipPath id="SVGID_34_">
				<use xlink:href="#SVGID_33_"  overflow="visible"/>
			</clipPath>
			<g clip-path="url(#SVGID_34_)" enable-background="new    ">
				<g>
					<defs>
						<rect id="SVGID_35_" x="0.393" y="9.547" width="24" height="9"/>
					</defs>
					<clipPath id="SVGID_36_">
						<use xlink:href="#SVGID_35_"  overflow="visible"/>
					</clipPath>
					<g clip-path="url(#SVGID_36_)">
						<defs>
							<path id="SVGID_37_" d="M23.785,17.594c-2.794-2.581-5.566-5.143-8.37-7.733c-0.891,0.713-1.551,1.675-2.832,1.667
								c-1.274-0.007-1.924-0.988-2.817-1.658c-2.803,2.593-5.574,5.155-8.379,7.748C2.047,17.915,23.248,17.89,23.785,17.594"/>
						</defs>
						<clipPath id="SVGID_38_">
							<use xlink:href="#SVGID_37_"  overflow="visible"/>
						</clipPath>
						<g clip-path="url(#SVGID_38_)">
							<defs>
								<rect id="SVGID_39_" x="0.393" y="9.547" width="24" height="9"/>
							</defs>
							<clipPath id="SVGID_40_">
								<use xlink:href="#SVGID_39_"  overflow="visible"/>
							</clipPath>
							<rect x="-3.613" y="4.86" clip-path="url(#SVGID_40_)" fill="#7F1399" width="32.398" height="17.968"/>
						</g>
					</g>
				</g>
			</g>
		</g>
	</g>
</g>
</svg>
