<?xml version="1.0" encoding="utf-8"?>
<!-- Generator: Adobe Illustrator 16.0.0, SVG Export Plug-In . SVG Version: 6.00 Build 0)  -->
<!DOCTYPE svg PUBLIC "-//W3C//DTD SVG 1.1//EN" "http://www.w3.org/Graphics/SVG/1.1/DTD/svg11.dtd">
<svg version="1.1" id="Layer_1" xmlns="http://www.w3.org/2000/svg" xmlns:xlink="http://www.w3.org/1999/xlink" x="0px" y="0px"
	 width="20.031px" height="17px" viewBox="0 0 20.031 17" enable-background="new 0 0 20.031 17" xml:space="preserve">
<g>
	<g>
		<defs>
			<path id="SVGID_1_" d="M7.238,1324.435v3.159h4.414c-0.339,1.905-1.99,3.29-4.414,3.29c-2.673,0-4.845-2.262-4.845-4.936
				c0-2.672,2.172-4.93,4.845-4.93c1.204,0,2.284,0.415,3.133,1.225v0.007l2.283-2.284c-1.404-1.306-3.229-2.109-5.416-2.109
				c-4.474,0-8.097,3.623-8.097,8.097c0,4.476,3.623,8.101,8.097,8.101c4.678,0,7.775-3.292,7.775-7.918
				c0-0.593-0.057-1.16-0.157-1.701H7.238z"/>
		</defs>
		<clipPath id="SVGID_2_">
			<use xlink:href="#SVGID_1_"  overflow="visible"/>
		</clipPath>
		<g clip-path="url(#SVGID_2_)">
			<defs>
				<rect id="SVGID_3_" x="-1161.344" y="-150" width="1440" height="1535"/>
			</defs>
			<clipPath id="SVGID_4_">
				<use xlink:href="#SVGID_3_"  overflow="visible"/>
			</clipPath>
			<rect x="-5.858" y="1312.856" clip-path="url(#SVGID_4_)" fill="#7F1399" width="25.872" height="26.197"/>
		</g>
	</g>
	<g>
		<defs>
			<polygon id="SVGID_5_" points="20.905,1322.412 18.881,1322.412 18.881,1324.942 16.35,1324.942 16.35,1326.967 18.881,1326.967 
				18.881,1329.499 20.905,1329.499 20.905,1326.967 23.437,1326.967 23.437,1324.942 20.905,1324.942 			"/>
		</defs>
		<clipPath id="SVGID_6_">
			<use xlink:href="#SVGID_5_"  overflow="visible"/>
		</clipPath>
		<g clip-path="url(#SVGID_6_)">
			<defs>
				<rect id="SVGID_7_" x="-1161.344" y="-150" width="1440" height="1535"/>
			</defs>
			<clipPath id="SVGID_8_">
				<use xlink:href="#SVGID_7_"  overflow="visible"/>
			</clipPath>
			<rect x="11.35" y="1317.412" clip-path="url(#SVGID_8_)" fill="#7F1399" width="17.087" height="17.087"/>
		</g>
	</g>
</g>
<g>
	<defs>
		<path id="SVGID_9_" d="M19.244,0.874c-0.773,0.457-1.627,0.791-2.539,0.972c-0.729-0.777-1.771-1.264-2.918-1.264
			c-2.208,0-3.998,1.789-3.998,3.998c0,0.313,0.035,0.619,0.103,0.91C6.569,5.325,3.624,3.733,1.65,1.313
			C1.306,1.904,1.109,2.592,1.109,3.324c0,1.386,0.705,2.61,1.779,3.327C2.232,6.63,1.617,6.45,1.079,6.15
			C1.076,6.167,1.076,6.185,1.076,6.202c0,1.937,1.378,3.552,3.209,3.919c-0.338,0.092-0.688,0.143-1.055,0.143
			c-0.256,0-0.507-0.027-0.751-0.072c0.509,1.586,1.984,2.744,3.734,2.775c-1.368,1.072-3.091,1.711-4.966,1.711
			c-0.322,0-0.641-0.018-0.953-0.057c1.769,1.135,3.871,1.797,6.129,1.797c7.354,0,11.375-6.092,11.375-11.375
			c0-0.174-0.004-0.346-0.011-0.518c0.78-0.564,1.459-1.267,1.993-2.069c-0.717,0.317-1.486,0.531-2.296,0.628
			C18.312,2.592,18.945,1.806,19.244,0.874"/>
	</defs>
	<clipPath id="SVGID_10_">
		<use xlink:href="#SVGID_9_"  overflow="visible"/>
	</clipPath>
	<g clip-path="url(#SVGID_10_)">
		<defs>
			<rect id="SVGID_11_" x="-1122.445" y="-1467.718" width="1440" height="1535"/>
		</defs>
		<clipPath id="SVGID_12_">
			<use xlink:href="#SVGID_11_"  overflow="visible"/>
		</clipPath>
		<rect x="-4.705" y="-4.418" clip-path="url(#SVGID_12_)" fill="#7F1399" width="29.486" height="25.836"/>
	</g>
</g>
</svg>
